<svg xmlns="http://www.w3.org/2000/svg" x="0px" y="0px"
viewBox="0 0 172 172"
style=" fill:#000000;"><g fill="none" fill-rule="nonzero" stroke="none" stroke-width="1" stroke-linecap="butt" stroke-linejoin="miter" stroke-miterlimit="10" stroke-dasharray="" stroke-dashoffset="0" font-family="none" font-weight="none" font-size="none" text-anchor="none" style="mix-blend-mode: normal"><path d="M0,172v-172h172v172z" fill="none"></path><g fill="#fac921"><path d="M91.16,6.88c-44.30659,0 -80.33521,35.74467 -80.81984,79.93969v0.04031v0.04031c0.4851,43.24539 35.74631,78.21969 79.09984,78.21969c27.74868,0 52.20246,-14.30659 66.32078,-35.95875c1.03899,-1.59187 0.59078,-3.72461 -1.00109,-4.76359c-1.59187,-1.03899 -3.72461,-0.59078 -4.76359,1.00109c-12.89257,19.77232 -35.17053,32.84125 -60.5561,32.84125c-39.64661,0 -71.74733,-31.8439 -72.21312,-71.38c0.46627,-40.48536 33.33381,-73.1 73.93312,-73.1c34.32965,0 62.16809,27.09805 63.51235,61.0936c-0.6598,15.13675 -6.85513,28.03484 -14.92906,37.26219c-8.53998,9.75997 -19.22862,15.16422 -26.22328,15.16422c-3.82043,0 -6.82702,-3.01457 -6.85985,-6.82625c0.0313,-0.35331 0.70164,-7.66266 3.94391,-16.17203c0.0094,-0.03123 0.01836,-0.06258 0.02687,-0.09406l23.28047,-58.19109c0.44826,-1.08038 0.31688,-2.3145 -0.34877,-3.2763c-0.66565,-0.9618 -1.77438,-1.51951 -2.94341,-1.48058c-1.37891,0.04837 -2.59553,0.91588 -3.09062,2.20375l-4.6225,11.55625c-2.09402,-4.6794 -4.99264,-8.38761 -8.61344,-11.09937c-5.85098,-4.38203 -13.25727,-6.06031 -21.41265,-6.06031c-9.64125,0 -22.04596,6.01382 -32.59937,16.8439c-10.55342,10.83009 -19.00063,26.77052 -19.00063,46.7961c0,18.00685 14.67315,32.68 32.68,32.68c10.49406,0 18.1766,-4.40658 23.52906,-9.76235c0.86034,-0.86086 1.65318,-1.74583 2.41203,-2.64047c0.69809,6.92061 6.52454,12.40281 13.6189,12.40281c10.20533,0 21.87669,-6.63575 31.39672,-17.51578c8.32635,-9.51583 14.9137,-22.49284 16.43406,-37.71906c0.2251,-0.47646 0.33773,-0.99827 0.32922,-1.52515c0,-1.1348 -0.03416,-2.26446 -0.08735,-3.38625c0.01585,-0.59662 0.08735,-1.17106 0.08735,-1.77375c0.00451,-0.5128 -0.10568,-1.02012 -0.3225,-1.48485c-3.3573,-35.7972 -33.53184,-63.87515 -70.1975,-63.87515zM92.88,44.72c7.21454,0 12.99548,1.47534 17.28735,4.68969c4.13097,3.09385 7.15917,7.93526 8.7075,15.67485l-14.64688,36.61047c-0.01886,0.04441 -0.03678,0.08921 -0.05375,0.13437l-1.23625,3.08391c-0.06237,0.08682 -0.12066,0.1765 -0.17469,0.26875c-2.70213,4.32124 -5.70684,9.91677 -10.1386,14.35125c-4.43175,4.43448 -10.02203,7.74672 -18.66469,7.74672c-14.28787,0 -25.8,-11.51213 -25.8,-25.8c0,-18.09995 7.55572,-32.26038 17.04547,-41.9989c9.48975,-9.73853 21.16842,-14.7611 27.67453,-14.7611z"></path></g></g></svg>