<svg xmlns="http://www.w3.org/2000/svg" x="0px" y="0px"
width="20" height="20"
viewBox="0 0 172 172"
style=" fill:#000000;"><g fill="none" fill-rule="nonzero" stroke="none" stroke-width="1" stroke-linecap="butt" stroke-linejoin="miter" stroke-miterlimit="10" stroke-dasharray="" stroke-dashoffset="0" font-family="none" font-weight="none" font-size="none" text-anchor="none" style="mix-blend-mode: normal"><path d="M0,172v-172h172v172z" fill="none"></path><g fill="#fac921"><path d="M148.95469,17.14401c-0.21364,0.00675 -0.42673,0.02544 -0.63828,0.05599h-33.64974c-2.06765,-0.02924 -3.99087,1.05709 -5.03322,2.843c-1.04236,1.78592 -1.04236,3.99474 0,5.78066c1.04236,1.78592 2.96558,2.87225 5.03322,2.843h20.55938l-59.01302,59.01302c-1.49778,1.43802 -2.10113,3.5734 -1.57735,5.5826c0.52378,2.0092 2.09284,3.57826 4.10204,4.10204c2.0092,0.52378 4.14458,-0.07957 5.5826,-1.57735l59.01302,-59.01302v20.55938c-0.02924,2.06765 1.05709,3.99087 2.843,5.03322c1.78592,1.04236 3.99474,1.04236 5.78066,0c1.78592,-1.04236 2.87225,-2.96558 2.843,-5.03322v-33.67214c0.23111,-1.67076 -0.28511,-3.35853 -1.41129,-4.61415c-1.12617,-1.25562 -2.74806,-1.95172 -4.43402,-1.90304zM34.4,40.13333c-6.26689,0 -11.46667,5.19977 -11.46667,11.46667v86c0,6.26689 5.19977,11.46667 11.46667,11.46667h86c6.26689,0 11.46667,-5.19977 11.46667,-11.46667v-57.33333v-14.78125l-11.46667,11.46667v14.78125v45.86667h-86v-86h45.86667h11.46667h3.31458l11.46667,-11.46667h-14.78125h-11.46667z"></path></g></g></svg>