<svg xmlns="http://www.w3.org/2000/svg" x="0px" y="0px"

viewBox="0 0 172 172"
style=" fill:#000000;"><g fill="none" fill-rule="nonzero" stroke="none" stroke-width="1" stroke-linecap="butt" stroke-linejoin="miter" stroke-miterlimit="10" stroke-dasharray="" stroke-dashoffset="0" font-family="none" font-weight="none" font-size="none" text-anchor="none" style="mix-blend-mode: normal"><path d="M0,172v-172h172v172z" fill="none"></path><g fill="#fac921"><path d="M0,24.08v3.44v120.4h172v-123.84zM6.88,30.96h158.24v8.62015c-1.45955,1.27213 -62.56052,54.52441 -67.64437,58.95031c-4.46219,3.88469 -9.00804,4.67625 -11.47563,4.67625c-2.46513,0 -7.01279,-0.79099 -11.47563,-4.67625c-5.08386,-4.42591 -66.18483,-57.67818 -67.64437,-58.95031zM6.88,48.67735c8.38663,7.31058 58.36871,50.88289 63.1361,55.03328c5.85028,5.09314 12.04375,6.36265 15.9839,6.36265c3.93769,0 10.13297,-1.26894 15.9839,-6.36265c4.76737,-4.15038 54.74912,-47.71657 63.1361,-55.02656v92.35594h-158.24z"></path></g></g></svg>