<svg xmlns="http://www.w3.org/2000/svg" x="0px" y="0px"
width="20" height="20"
viewBox="0 0 172 172"
style=" fill:#000000;"><g fill="none" fill-rule="nonzero" stroke="none" stroke-width="1" stroke-linecap="butt" stroke-linejoin="miter" stroke-miterlimit="10" stroke-dasharray="" stroke-dashoffset="0" font-family="none" font-weight="none" font-size="none" text-anchor="none" style="mix-blend-mode: normal"><path d="M0,172v-172h172v172z" fill="none"></path><g fill="#cccccc"><path d="M51.55969,13.73313c-1.3975,0 -2.64719,0.84656 -3.18469,2.13656c-0.52406,1.30344 -0.215,2.78156 0.79281,3.7625l66.36781,66.36781l-66.36781,66.36781c-0.90031,0.86 -1.26313,2.15 -0.94063,3.34594c0.30906,1.20938 1.24969,2.15 2.45906,2.45906c1.19594,0.3225 2.48594,-0.04031 3.34594,-0.94063l68.8,-68.8c1.34375,-1.34375 1.34375,-3.52062 0,-4.86437l-68.8,-68.8c-0.645,-0.67188 -1.53187,-1.03469 -2.4725,-1.03469z"></path></g></g></svg>