<svg xmlns="http://www.w3.org/2000/svg" x="0px" y="0px"
width="30" height="30"
viewBox="0 0 172 172"
style=" fill:#000000;"><g fill="none" fill-rule="nonzero" stroke="none" stroke-width="1" stroke-linecap="butt" stroke-linejoin="miter" stroke-miterlimit="10" stroke-dasharray="" stroke-dashoffset="0" font-family="none" font-weight="none" font-size="none" text-anchor="none" style="mix-blend-mode: normal"><path d="M0,172v-172h172v172z" fill="none"></path><g fill="#2D2D32"><path d="M0,24.08v123.84h172v-123.84zM6.88,30.96h158.24v8.6c-1.34375,1.16906 -61.66469,53.79031 -67.295,58.695l-0.3225,0.3225c-4.46125,3.88344 -9.03,4.6225 -11.5025,4.6225c-2.45906,0 -7.04125,-0.73906 -11.5025,-4.6225c-1.27656,-1.11531 -10.46781,-9.05687 -17.0925,-14.835c-19.65906,-17.14625 -49.51719,-43.29562 -50.525,-44.1825zM6.88,48.6975c5.96625,5.20031 27.13031,23.62313 45.15,39.345l-45.15,35.69zM165.12,48.6975v75.035l-45.15,-35.69c18.01969,-15.72187 39.18375,-34.14469 45.15,-39.345zM57.2975,92.665c4.17906,3.64156 11.73094,10.23938 12.685,11.0725l0.1075,0.1075c5.81844,4.99875 11.99969,6.235 15.91,6.235c3.93719,0 10.17219,-1.24969 16.0175,-6.3425c0.9675,-0.83312 8.57313,-7.39062 12.7925,-11.0725l50.31,39.775v8.6h-158.24v-8.6z"></path></g></g></svg>