<svg xmlns="http://www.w3.org/2000/svg" x="0px" y="0px"
width="30" height="30"
viewBox="0 0 172 172"
style=" fill:#000000;"><g fill="none" fill-rule="nonzero" stroke="none" stroke-width="1" stroke-linecap="butt" stroke-linejoin="miter" stroke-miterlimit="10" stroke-dasharray="" stroke-dashoffset="0" font-family="none" font-weight="none" font-size="none" text-anchor="none" style="mix-blend-mode: normal"><path d="M0,172v-172h172v172z" fill="none"></path><g id="original-icon" fill="#000000"><path d="M85.6775,10.2125c-0.14781,0.02688 -0.29562,0.06719 -0.43,0.1075c-1.59906,0.36281 -2.72781,1.80063 -2.6875,3.44v98.255l-21.6075,-21.6075c-0.49719,-0.49719 -1.12875,-0.84656 -1.8275,-0.9675c-0.45687,-0.09406 -0.94062,-0.09406 -1.3975,0c-1.29,0.22844 -2.32469,1.16906 -2.6875,2.41875c-0.36281,1.26313 0.01344,2.60688 0.9675,3.49375l27.09,26.9825c0.25531,0.38969 0.57781,0.71219 0.9675,0.9675l1.935,1.935l1.935,-1.935c0.1075,-0.06719 0.215,-0.13437 0.3225,-0.215l0.215,-0.215c0,-0.04031 0,-0.06719 0,-0.1075c0.08063,-0.06719 0.14781,-0.13437 0.215,-0.215l27.305,-27.1975c1.37063,-1.37062 1.37063,-3.57437 0,-4.945c-1.37062,-1.37062 -3.57437,-1.37062 -4.945,0l-21.6075,21.6075v-98.255c0,-0.1075 0,-0.215 0,-0.3225c0,-0.1075 0,-0.215 0,-0.3225c-0.04031,-0.25531 -0.12094,-0.51062 -0.215,-0.7525c-0.06719,-0.08062 -0.13437,-0.14781 -0.215,-0.215c-0.08062,-0.22844 -0.18812,-0.44344 -0.3225,-0.645c-0.06719,-0.08062 -0.13437,-0.14781 -0.215,-0.215c-0.1075,-0.08062 -0.215,-0.14781 -0.3225,-0.215c-0.68531,-0.60469 -1.57219,-0.91375 -2.4725,-0.86zM6.88,123.84v20.64c0,9.44656 7.75344,17.2 17.2,17.2h123.84c9.44656,0 17.2,-7.75344 17.2,-17.2v-20.64h-6.88v20.64c0,5.6975 -4.6225,10.32 -10.32,10.32h-123.84c-5.6975,0 -10.32,-4.6225 -10.32,-10.32v-20.64z"></path></g></g></svg>